<svg width="91" height="21" viewBox="0 0 91 21" fill="none" xmlns="http://www.w3.org/2000/svg">
<g id="Logotype">
<path d="M5.58977 16.2816C4.50721 16.2816 3.45807 16.1296 2.44233 15.8255C1.43997 15.5214 0.644757 15.1181 0.0567017 14.6156L0.958832 12.6125C1.53352 13.062 2.23518 13.4323 3.0638 13.7231C3.90579 14.0008 4.74778 14.1396 5.58977 14.1396C6.63223 14.1396 7.40739 13.9744 7.91526 13.6438C8.43649 13.3133 8.6971 12.8769 8.6971 12.3348C8.6971 11.9381 8.55009 11.6142 8.25606 11.363C7.9754 11.0985 7.61455 10.8936 7.17351 10.7481C6.73246 10.6027 6.13104 10.4374 5.36925 10.2523C4.30005 10.0011 3.43134 9.74986 2.76309 9.49864C2.10821 9.24742 1.5402 8.85736 1.05907 8.32847C0.591297 7.78636 0.357412 7.05914 0.357412 6.14681C0.357412 5.37992 0.564568 4.68575 0.978879 4.06431C1.40656 3.42964 2.04139 2.92719 2.88338 2.55697C3.73873 2.18675 4.78119 2.00164 6.01076 2.00164C6.86611 2.00164 7.7081 2.10742 8.53673 2.31897C9.36535 2.53053 10.0804 2.83464 10.6818 3.23131L9.85985 5.23447C9.24506 4.87747 8.60355 4.60642 7.93531 4.42131C7.26706 4.23619 6.61886 4.14364 5.99071 4.14364C4.96162 4.14364 4.19314 4.31553 3.68527 4.65931C3.19077 5.00308 2.94352 5.45925 2.94352 6.02781C2.94352 6.42447 3.08385 6.74842 3.36451 6.99964C3.65854 7.25086 4.02607 7.4492 4.46712 7.59464C4.90816 7.74008 5.50958 7.90536 6.27138 8.09047C7.31384 8.32847 8.16919 8.5797 8.83743 8.84414C9.50568 9.09536 10.0737 9.48542 10.5415 10.0143C11.0226 10.5432 11.2632 11.2572 11.2632 12.1563C11.2632 12.9232 11.0493 13.6174 10.6216 14.2388C10.2073 14.8603 9.5725 15.3561 8.71715 15.7263C7.8618 16.0965 6.81934 16.2816 5.58977 16.2816Z" fill="white"/>
<path d="M13.6068 5.49231H16.1127V16.0833H13.6068V5.49231ZM14.8698 3.74697C14.4154 3.74697 14.0345 3.60814 13.7271 3.33047C13.4197 3.03958 13.266 2.68258 13.266 2.25947C13.266 1.83636 13.4197 1.48597 13.7271 1.20831C14.0345 0.917417 14.4154 0.771973 14.8698 0.771973C15.3242 0.771973 15.7051 0.910806 16.0125 1.18847C16.3199 1.45292 16.4736 1.79008 16.4736 2.19997C16.4736 2.63631 16.3199 3.00653 16.0125 3.31064C15.7185 3.60153 15.3376 3.74697 14.8698 3.74697Z" fill="white"/>
<path d="M22.7096 16.2221C21.8408 16.2221 20.9922 16.1098 20.1636 15.885C19.3349 15.6602 18.6734 15.3759 18.1789 15.0321L19.1411 13.148C19.6223 13.4653 20.197 13.7231 20.8652 13.9215C21.5468 14.1066 22.2151 14.1991 22.8699 14.1991C24.3668 14.1991 25.1152 13.8091 25.1152 13.029C25.1152 12.6588 24.9215 12.4009 24.5339 12.2555C24.1597 12.11 23.5516 11.9712 22.7096 11.839C21.8275 11.7068 21.1058 11.5547 20.5445 11.3828C19.9965 11.2109 19.5154 10.9134 19.101 10.4903C18.7001 10.054 18.4996 9.45236 18.4996 8.68547C18.4996 7.68058 18.9206 6.88064 19.7626 6.28564C20.618 5.67742 21.7673 5.37331 23.2107 5.37331C23.9458 5.37331 24.6809 5.45925 25.416 5.63114C26.151 5.78981 26.7524 6.00797 27.2202 6.28564L26.2579 8.16981C25.3491 7.64092 24.3267 7.37647 23.1907 7.37647C22.4556 7.37647 21.8943 7.48886 21.5067 7.71364C21.1325 7.9252 20.9454 8.20947 20.9454 8.56647C20.9454 8.96314 21.1459 9.24742 21.5468 9.41931C21.9611 9.57797 22.596 9.73003 23.4513 9.87547C24.3067 10.0077 25.0083 10.1598 25.5563 10.3316C26.1042 10.5035 26.572 10.7944 26.9596 11.2043C27.3605 11.6142 27.561 12.196 27.561 12.9496C27.561 13.9413 27.1267 14.7346 26.2579 15.3296C25.3892 15.9246 24.2064 16.2221 22.7096 16.2221Z" fill="white"/>
<path d="M39.547 5.49231L34.5351 16.9361C34.0674 18.0865 33.4994 18.893 32.8311 19.3558C32.1629 19.8318 31.3543 20.0698 30.4054 20.0698C29.8708 20.0698 29.3429 19.9839 28.8217 19.812C28.3004 19.6401 27.8727 19.4021 27.5386 19.098L28.541 17.2733C28.7816 17.4981 29.0622 17.6766 29.383 17.8088C29.7171 17.941 30.0512 18.0071 30.3853 18.0071C30.8264 18.0071 31.1872 17.8948 31.4679 17.67C31.7619 17.4452 32.0292 17.0684 32.2698 16.5395L32.4502 16.123L27.7792 5.49231H30.3853L33.7533 13.3265L37.1413 5.49231H39.547Z" fill="white"/>
<path d="M47.0472 5.37331C48.0896 5.37331 49.0185 5.59808 49.8338 6.04764C50.6624 6.4972 51.3106 7.13186 51.7784 7.95164C52.2461 8.77142 52.48 9.71681 52.48 10.7878C52.48 11.8588 52.2461 12.8108 51.7784 13.6438C51.3106 14.4636 50.6624 15.0983 49.8338 15.5478C49.0185 15.9974 48.0896 16.2221 47.0472 16.2221C45.6038 16.2221 44.4611 15.7461 43.6191 14.7941V19.931H41.1132V5.49231H43.4988V6.88064C43.9131 6.3782 44.421 6.00136 45.0224 5.75014C45.6372 5.49892 46.3121 5.37331 47.0472 5.37331ZM46.7665 14.1C47.6887 14.1 48.4438 13.7959 49.0319 13.1876C49.6333 12.5794 49.934 11.7795 49.934 10.7878C49.934 9.79614 49.6333 8.9962 49.0319 8.38797C48.4438 7.77975 47.6887 7.47564 46.7665 7.47564C46.1651 7.47564 45.6238 7.61447 45.1427 7.89214C44.6616 8.15659 44.2807 8.54003 44 9.04247C43.7193 9.54492 43.579 10.1267 43.579 10.7878C43.579 11.4489 43.7193 12.0307 44 12.5331C44.2807 13.0356 44.6616 13.4256 45.1427 13.7033C45.6238 13.9678 46.1651 14.1 46.7665 14.1Z" fill="white"/>
<path d="M60.9309 5.37331C62.2808 5.37331 63.3633 5.76336 64.1786 6.54347C64.9938 7.32358 65.4015 8.48053 65.4015 10.0143V16.0833H62.8955V10.3316C62.8955 9.40609 62.675 8.71192 62.234 8.24914C61.7929 7.77314 61.1648 7.53514 60.3495 7.53514C59.4274 7.53514 58.699 7.81281 58.1644 8.36814C57.6298 8.91025 57.3625 9.69697 57.3625 10.7283V16.0833H54.8566V1.36697H57.3625V6.72197C57.7768 6.28564 58.2847 5.95508 58.8861 5.73031C59.5009 5.49231 60.1825 5.37331 60.9309 5.37331Z" fill="white"/>
<path d="M78.9448 5.49231V16.0833H76.5592V14.7346C76.1583 15.2106 75.6571 15.5809 75.0557 15.8453C74.4542 16.0965 73.806 16.2221 73.1111 16.2221C71.681 16.2221 70.5517 15.8321 69.7231 15.052C68.9078 14.2586 68.5002 13.0885 68.5002 11.5415V5.49231H71.0061V11.2043C71.0061 12.1563 71.2199 12.8703 71.6476 13.3463C72.0887 13.8091 72.7101 14.0405 73.512 14.0405C74.4075 14.0405 75.1158 13.7694 75.637 13.2273C76.1716 12.672 76.4389 11.8786 76.4389 10.8473V5.49231H78.9448Z" fill="white"/>
<path d="M85.5337 16.2221C84.665 16.2221 83.8163 16.1098 82.9877 15.885C82.159 15.6602 81.4975 15.3759 81.003 15.0321L81.9653 13.148C82.4464 13.4653 83.0211 13.7231 83.6893 13.9215C84.3709 14.1066 85.0392 14.1991 85.6941 14.1991C87.1909 14.1991 87.9394 13.8091 87.9394 13.029C87.9394 12.6588 87.7456 12.4009 87.358 12.2555C86.9838 12.11 86.3757 11.9712 85.5337 11.839C84.6516 11.7068 83.9299 11.5547 83.3686 11.3828C82.8206 11.2109 82.3395 10.9134 81.9252 10.4903C81.5242 10.054 81.3237 9.45236 81.3237 8.68547C81.3237 7.68058 81.7447 6.88064 82.5867 6.28564C83.4421 5.67742 84.5915 5.37331 86.0349 5.37331C86.7699 5.37331 87.505 5.45925 88.2401 5.63114C88.9751 5.78981 89.5766 6.00797 90.0443 6.28564L89.0821 8.16981C88.1732 7.64092 87.1508 7.37647 86.0148 7.37647C85.2797 7.37647 84.7184 7.48886 84.3308 7.71364C83.9566 7.9252 83.7695 8.20947 83.7695 8.56647C83.7695 8.96314 83.97 9.24742 84.3709 9.41931C84.7852 9.57797 85.4201 9.73003 86.2754 9.87547C87.1308 10.0077 87.8324 10.1598 88.3804 10.3316C88.9284 10.5035 89.3961 10.7944 89.7837 11.2043C90.1847 11.6142 90.3851 12.196 90.3851 12.9496C90.3851 13.9413 89.9508 14.7346 89.0821 15.3296C88.2133 15.9246 87.0305 16.2221 85.5337 16.2221Z" fill="white"/>
</g>
</svg>
